# xmcd
#
# Track frame offsets:
#	150
#	9627
#	23723
#	33542
#	46217
#	56965
#	69763
#	81252
#	92565
#	101387
#	110383
#	121069
#	132492
#	144872
#	154452
#	164669
#	174959
#	186439
#	198304
#	208962
#	219873
#	230771
#	240704
#	251245
#	264333
#	272881
#
# Disc length: 3783 seconds
#
# Revision: 1
# Processed by: cddbd v1.5.2PL0 Copyright (c) Steve Scherf et al.
# Submitted via: audiograbber 1.83.01
#
DISCID=770ec51a
DTITLE=Wynn Stewart - Heartaches For A Dime - The Singles Collection 1956-1962
DYEAR=1962
DGENRE=Country
TTITLE0=Why Do I Love You So
TTITLE1=Waltz of the Angels
TTITLE2=Slowly But Surely
TTITLE3=Keeper of the Keys
TTITLE4=A New Love
TTITLE5=You Took Her Off My Hands
TTITLE6=That Just Kills Me
TTITLE7=I Wish I Could Say the Same
TTITLE8=Come on
TTITLE9=Above and Beyond
TTITLE10=How the Other Half Lives with Jan Howard
TTITLE11=Yankee Go Home with Jan Howard
TTITLE12=Wishful Thinking
TTITLE13=Uncle Tom Got Caught
TTITLE14=Wrong Company with Jan Howard
TTITLE15=Open Up My Heart
TTITLE16=Heartaches for a Dime
TTITLE17=I'd Rather Have America
TTITLE18=Playboy
TTITLE19=We'll Never Love Again with Jan Howard
TTITLE20=Big Big Love
TTITLE21=One More Memory
TTITLE22=Loversville
TTITLE23=I Don't Feel at Home
TTITLE24=I Done Done It
TTITLE25=Another Day, Another Dollar
EXTD=
EXTT0=
EXTT1=
EXTT2=
EXTT3=
EXTT4=
EXTT5=
EXTT6=
EXTT7=
EXTT8=
EXTT9=
EXTT10=
EXTT11=
EXTT12=
EXTT13=
EXTT14=
EXTT15=
EXTT16=
EXTT17=
EXTT18=
EXTT19=
EXTT20=
EXTT21=
EXTT22=
EXTT23=
EXTT24=
EXTT25=
PLAYORDER=
